<?xml version="1.0" standalone="no"?>
<!DOCTYPE svg PUBLIC "-//W3C//DTD SVG 20010904//EN"
 "http://www.w3.org/TR/2001/REC-SVG-20010904/DTD/svg10.dtd">
<svg version="1.0" xmlns="http://www.w3.org/2000/svg"
 width="80px" height="80px" viewBox="0 0 2400.000000 2400.000000"
 preserveAspectRatio="xMidYMid meet">

<g transform="translate(0.000000,2400.000000) scale(0.100000,-0.100000)"
fill="#000000" stroke="none">
<path d="M1060 14265 l0 -1636 998 4 c898 3 1006 5 1085 20 298 60 532 177
734 370 147 141 267 312 348 495 216 492 203 1092 -35 1567 -229 456 -633 744
-1130 805 -53 6 -442 10 -1042 10 l-958 0 0 -1635z m1532 854 c420 -58 738
-427 738 -854 0 -262 -128 -522 -333 -679 -176 -134 -352 -186 -629 -186
l-118 0 0 869 0 869 138 -4 c75 -3 167 -9 204 -15z"/>
<path d="M5203 15880 c-56 -12 -90 -31 -137 -76 -108 -105 -108 -281 -1 -389
107 -107 284 -107 388 0 56 58 80 116 80 194 0 82 -27 144 -88 200 -69 64
-154 88 -242 71z"/>
<path d="M21930 15391 l0 -460 -57 30 c-124 63 -419 109 -603 94 -625 -50
-1099 -503 -1171 -1118 -63 -541 239 -1031 763 -1238 84 -33 236 -67 347 -79
62 -6 424 -10 917 -10 l814 0 0 1620 0 1620 -505 0 -505 0 0 -459z m-195
-1123 c49 -12 106 -41 164 -82 l44 -31 -7 -350 -7 -350 -32 -27 c-210 -179
-535 -128 -692 107 -96 145 -108 332 -30 486 32 63 123 161 180 195 114 66
250 85 380 52z"/>
<path d="M7304 15185 c-301 -43 -563 -144 -967 -375 l-167 -95 0 -384 0 -383
23 14 c207 134 562 318 734 381 357 132 563 111 650 -63 18 -36 36 -88 39
-117 l6 -51 -88 -26 c-180 -54 -582 -188 -679 -227 -134 -53 -325 -148 -405
-201 -89 -59 -191 -158 -223 -216 -62 -114 -81 -351 -39 -482 61 -190 211
-304 472 -360 81 -18 406 -24 550 -11 245 22 481 73 639 136 l83 33 43 -32
c23 -18 66 -42 96 -54 109 -44 176 -54 395 -59 l210 -5 117 303 c64 167 119
312 123 321 4 13 -2 18 -33 23 -84 14 -145 37 -179 68 -70 61 -68 45 -75 617
-7 587 -9 602 -94 775 -118 239 -327 389 -640 461 -100 22 -456 28 -591 9z
m314 -1742 c-3 -247 -5 -258 -64 -317 -50 -49 -82 -61 -169 -61 -92 0 -141 20
-193 79 -36 41 -46 83 -40 164 11 144 102 228 351 323 56 21 106 39 110 39 5
0 7 -102 5 -227z"/>
<path d="M14989 15095 c-468 -73 -805 -306 -985 -680 -91 -189 -134 -385 -134
-613 0 -560 277 -995 761 -1196 280 -116 686 -148 1019 -80 467 95 816 393
954 815 98 300 96 643 -5 940 -35 103 -113 247 -187 344 -193 254 -521 430
-887 474 -121 15 -430 12 -536 -4z m406 -832 c84 -29 166 -99 222 -193 87
-144 90 -358 8 -521 -39 -75 -118 -154 -193 -191 -60 -30 -75 -33 -157 -33
-80 0 -97 3 -156 31 -158 75 -258 249 -259 449 -1 320 268 550 535 458z"/>
<path d="M10710 15056 c-210 -32 -402 -113 -512 -214 -14 -13 -31 -22 -36 -18
-5 3 -22 42 -38 86 l-27 80 -474 0 -473 0 0 -1190 0 -1190 505 0 505 0 0 698
c0 770 -1 753 63 848 86 130 265 192 399 141 61 -24 129 -97 159 -173 l24 -59
3 -727 3 -728 504 0 504 0 3 723 c3 716 3 722 25 769 30 66 96 133 162 165 48
24 68 28 146 28 70 0 100 -5 136 -21 66 -31 114 -78 146 -142 l28 -57 5 -730
5 -730 503 -3 502 -2 0 880 c0 975 0 968 -64 1105 -104 219 -311 371 -613 447
-78 21 -112 23 -308 23 -194 0 -230 -3 -307 -22 -195 -50 -332 -152 -418 -315
l-32 -59 -30 47 c-103 164 -255 272 -453 325 -101 27 -410 36 -545 15z"/>
<path d="M18642 15059 c-193 -26 -371 -93 -498 -190 -37 -28 -70 -47 -74 -42
-4 4 -19 43 -34 86 l-28 77 -474 0 -474 0 2 -1187 3 -1188 502 -3 502 -2 3
712 3 713 23 58 c32 77 103 149 188 189 134 63 283 34 359 -71 73 -99 69 -55
75 -866 l5 -730 503 -3 503 -2 -4 807 c-3 780 -4 811 -24 901 -59 255 -144
417 -294 556 -79 73 -206 143 -314 172 -72 20 -342 27 -453 13z"/>
<path d="M4752 13803 l3 -1188 503 -3 502 -2 0 1190 0 1190 -505 0 -505 0 2
-1187z"/>
<path d="M1351 11926 c7 -7 4924 -1979 4934 -1979 9 0 4965 1935 5040 1968 25
11 -829 14 -4974 14 -2752 1 -5002 -1 -5000 -3z"/>
<path d="M12695 11920 c179 -74 5044 -1972 5055 -1972 8 1 503 197 1100 437
597 240 1697 682 2445 982 748 300 1369 549 1380 554 11 4 -2234 8 -4990 8
-2756 0 -5001 -4 -4990 -9z"/>
<path d="M9723 10401 c-1256 -499 -2285 -909 -2287 -912 -2 -2 1027 -428 2288
-947 l2293 -943 2291 943 c1261 518 2289 945 2284 949 -9 9 -4570 1819 -4579
1818 -5 0 -1035 -409 -2290 -908z"/>
</g>
</svg>
